# xmcd
#
# Track frame offsets:
#	150
#	13570
#	23365
#	34582
#	45282
#	54145
#	65672
#	76150
#	88950
#	101130
#	107492
#	121517
#	130965
#
# Disc length: 1893 seconds
#
# Revision: 1
# Processed by: cddbd v1.5PL3 Copyright (c) Steve Scherf et al.
# Submitted via: EasyCDDAExtractor 6.2.0.3
#
DISCID=8f07630d
DTITLE=Gus Cannon - Walk Right In
DYEAR=1963
DGENRE=Blues
TTITLE0=Narration
TTITLE1=Kill It
TTITLE2=Walk Right In
TTITLE3=Salty Dog
TTITLE4=Going Around the Mountain
TTITLE5=Ol' Hen
TTITLE6=Gonna Raise a Ruckus Tonight
TTITLE7=Ain't Gonna Rain No More
TTITLE8=Boll-Weevil
TTITLE9=Come on Down to My House
TTITLE10=Make Me a Pallet on Your Floor
TTITLE11=Get Up in the Morning Soon
TTITLE12=Crawdad Hole
EXTD=
EXTT0=
EXTT1=
EXTT2=
EXTT3=
EXTT4=
EXTT5=
EXTT6=
EXTT7=
EXTT8=
EXTT9=
EXTT10=
EXTT11=
EXTT12=
PLAYORDER=
